<svg viewBox="0 0 24 24" fill="none" xmlns="http://www.w3.org/2000/svg">
  <path d="M12 8.2C10.8 5.8 8.2 4 6 4.6C4.6 5 4.4 6.8 5.4 8.3C6.3 9.6 8.6 10.6 12 12.5C15.4 10.6 17.7 9.6 18.6 8.3C19.6 6.8 19.4 5 18 4.6C15.8 4 13.2 5.8 12 8.2Z" stroke="currentColor" stroke-width="1.3" stroke-linejoin="round"/>
  <path d="M12 12.5C9.5 14 8 15.6 8 17.2C8 18.4 8.9 19 9.9 18.5C11 18 12 16.4 12 15" stroke="currentColor" stroke-width="1.3" stroke-linejoin="round"/>
  <path d="M12 12.5C14.5 14 16 15.6 16 17.2C16 18.4 15.1 19 14.1 18.5C13 18 12 16.4 12 15" stroke="currentColor" stroke-width="1.3" stroke-linejoin="round"/>
</svg>
